<mxfile host="app.diagrams.net" modified="2021-05-28T12:21:19.494Z" agent="5.0 (Windows NT 10.0; Win64; x64) AppleWebKit/537.36 (KHTML, like Gecko) Chrome/90.0.4430.212 Safari/537.36" etag="2JrPcxZnPj7E5Pw7nLj4" version="14.7.2" type="github">
  <diagram name="Page-1" id="929967ad-93f9-6ef4-fab6-5d389245f69c">
    <mxGraphModel dx="1038" dy="548" grid="1" gridSize="10" guides="1" tooltips="1" connect="1" arrows="1" fold="1" page="1" pageScale="1.5" pageWidth="1169" pageHeight="826" background="#DAD2D8" math="0" shadow="0">
      <root>
        <mxCell id="0" style=";html=1;" />
        <mxCell id="1" style=";html=1;" parent="0" />
        <mxCell id="1672d66443f91eb5-23" value="MVC" style="text;strokeColor=none;fillColor=none;html=1;fontSize=24;fontStyle=1;verticalAlign=middle;align=center;rounded=1;fontColor=#143642;" parent="1" vertex="1">
          <mxGeometry x="120" y="40" width="1510" height="40" as="geometry" />
        </mxCell>
        <mxCell id="icPJS7Rqo_sTtw6IjZ7I-5" value="&lt;div style=&quot;text-align: justify&quot;&gt;&lt;span&gt;MODEL&lt;/span&gt;&lt;br&gt;&lt;/div&gt;" style="verticalAlign=top;align=left;spacingTop=8;spacingLeft=2;spacingRight=12;shape=cube;size=10;direction=south;fontStyle=4;html=1;rounded=1;fillColor=#FAE5C7;strokeColor=#0F8B8D;fontColor=#143642;" vertex="1" parent="1">
          <mxGeometry x="970" y="180" width="370" height="440" as="geometry" />
        </mxCell>
        <mxCell id="icPJS7Rqo_sTtw6IjZ7I-6" value="&lt;span style=&quot;text-align: center&quot;&gt;VIEW&lt;/span&gt;&lt;br&gt;" style="verticalAlign=top;align=left;spacingTop=8;spacingLeft=2;spacingRight=12;shape=cube;size=10;direction=south;fontStyle=4;html=1;rounded=1;fillColor=#FAE5C7;strokeColor=#0F8B8D;fontColor=#143642;" vertex="1" parent="1">
          <mxGeometry x="430" y="180" width="230" height="440" as="geometry" />
        </mxCell>
        <mxCell id="icPJS7Rqo_sTtw6IjZ7I-7" value="CONTROLLER&amp;nbsp;" style="verticalAlign=top;align=left;spacingTop=8;spacingLeft=2;spacingRight=12;shape=cube;size=10;direction=south;fontStyle=4;html=1;rounded=1;fillColor=#FAE5C7;strokeColor=#0F8B8D;fontColor=#143642;" vertex="1" parent="1">
          <mxGeometry x="690" y="180" width="260" height="440" as="geometry" />
        </mxCell>
        <mxCell id="icPJS7Rqo_sTtw6IjZ7I-44" style="edgeStyle=orthogonalEdgeStyle;orthogonalLoop=1;jettySize=auto;html=1;curved=1;labelBackgroundColor=#DAD2D8;strokeColor=#A8201A;fontColor=#143642;" edge="1" parent="1" source="icPJS7Rqo_sTtw6IjZ7I-17" target="icPJS7Rqo_sTtw6IjZ7I-21">
          <mxGeometry relative="1" as="geometry">
            <Array as="points">
              <mxPoint x="1160" y="500" />
              <mxPoint x="1240" y="500" />
            </Array>
          </mxGeometry>
        </mxCell>
        <mxCell id="icPJS7Rqo_sTtw6IjZ7I-17" value="AnomalyDetector.js" style="swimlane;fontStyle=1;align=center;verticalAlign=top;childLayout=stackLayout;horizontal=1;startSize=26;horizontalStack=0;resizeParent=1;resizeParentMax=0;resizeLast=0;collapsible=1;marginBottom=0;rounded=1;fillColor=#FAE5C7;strokeColor=#0F8B8D;fontColor=#143642;" vertex="1" parent="1">
          <mxGeometry x="1030" y="360" width="260" height="104" as="geometry" />
        </mxCell>
        <mxCell id="icPJS7Rqo_sTtw6IjZ7I-18" value="+ AnomalyDetector SimpleAnomalyDetector&#xa;+ AnomalyDetector HybrodAnomalyDetector&#xa;" style="text;strokeColor=none;fillColor=none;align=left;verticalAlign=top;spacingLeft=4;spacingRight=4;overflow=hidden;rotatable=0;points=[[0,0.5],[1,0.5]];portConstraint=eastwest;rounded=1;fontColor=#143642;" vertex="1" parent="icPJS7Rqo_sTtw6IjZ7I-17">
          <mxGeometry y="26" width="260" height="44" as="geometry" />
        </mxCell>
        <mxCell id="icPJS7Rqo_sTtw6IjZ7I-19" value="" style="line;strokeWidth=1;fillColor=none;align=left;verticalAlign=middle;spacingTop=-1;spacingLeft=3;spacingRight=3;rotatable=0;labelPosition=right;points=[];portConstraint=eastwest;rounded=1;labelBackgroundColor=#DAD2D8;strokeColor=#0F8B8D;fontColor=#143642;" vertex="1" parent="icPJS7Rqo_sTtw6IjZ7I-17">
          <mxGeometry y="70" width="260" height="8" as="geometry" />
        </mxCell>
        <mxCell id="icPJS7Rqo_sTtw6IjZ7I-20" value="+ method: detect" style="text;strokeColor=none;fillColor=none;align=left;verticalAlign=top;spacingLeft=4;spacingRight=4;overflow=hidden;rotatable=0;points=[[0,0.5],[1,0.5]];portConstraint=eastwest;rounded=1;fontColor=#143642;" vertex="1" parent="icPJS7Rqo_sTtw6IjZ7I-17">
          <mxGeometry y="78" width="260" height="26" as="geometry" />
        </mxCell>
        <mxCell id="icPJS7Rqo_sTtw6IjZ7I-21" value="HybridAnomalyDetector" style="swimlane;fontStyle=1;align=center;verticalAlign=top;childLayout=stackLayout;horizontal=1;startSize=26;horizontalStack=0;resizeParent=1;resizeParentMax=0;resizeLast=0;collapsible=1;marginBottom=0;rounded=1;fillColor=#FAE5C7;strokeColor=#0F8B8D;fontColor=#143642;" vertex="1" parent="1">
          <mxGeometry x="1160" y="520" width="160" height="80" as="geometry" />
        </mxCell>
        <mxCell id="icPJS7Rqo_sTtw6IjZ7I-23" value="" style="line;strokeWidth=1;fillColor=none;align=left;verticalAlign=middle;spacingTop=-1;spacingLeft=3;spacingRight=3;rotatable=0;labelPosition=right;points=[];portConstraint=eastwest;rounded=1;labelBackgroundColor=#DAD2D8;strokeColor=#0F8B8D;fontColor=#143642;" vertex="1" parent="icPJS7Rqo_sTtw6IjZ7I-21">
          <mxGeometry y="26" width="160" height="8" as="geometry" />
        </mxCell>
        <mxCell id="icPJS7Rqo_sTtw6IjZ7I-24" value="+ method: learnHelper&#xa;+ method: isAnomalous" style="text;strokeColor=none;fillColor=none;align=left;verticalAlign=top;spacingLeft=4;spacingRight=4;overflow=hidden;rotatable=0;points=[[0,0.5],[1,0.5]];portConstraint=eastwest;rounded=1;fontColor=#143642;" vertex="1" parent="icPJS7Rqo_sTtw6IjZ7I-21">
          <mxGeometry y="34" width="160" height="46" as="geometry" />
        </mxCell>
        <mxCell id="icPJS7Rqo_sTtw6IjZ7I-25" value="SimpleAnomalyDetector" style="swimlane;fontStyle=1;align=center;verticalAlign=top;childLayout=stackLayout;horizontal=1;startSize=26;horizontalStack=0;resizeParent=1;resizeParentMax=0;resizeLast=0;collapsible=1;marginBottom=0;rounded=1;fillColor=#FAE5C7;strokeColor=#0F8B8D;fontColor=#143642;" vertex="1" parent="1">
          <mxGeometry x="990" y="520" width="160" height="80" as="geometry" />
        </mxCell>
        <mxCell id="icPJS7Rqo_sTtw6IjZ7I-27" value="" style="line;strokeWidth=1;fillColor=none;align=left;verticalAlign=middle;spacingTop=-1;spacingLeft=3;spacingRight=3;rotatable=0;labelPosition=right;points=[];portConstraint=eastwest;rounded=1;labelBackgroundColor=#DAD2D8;strokeColor=#0F8B8D;fontColor=#143642;" vertex="1" parent="icPJS7Rqo_sTtw6IjZ7I-25">
          <mxGeometry y="26" width="160" height="8" as="geometry" />
        </mxCell>
        <mxCell id="icPJS7Rqo_sTtw6IjZ7I-28" value="+ method: learnHelper&#xa;+ method: isAnomalous&#xa;" style="text;strokeColor=none;fillColor=none;align=left;verticalAlign=top;spacingLeft=4;spacingRight=4;overflow=hidden;rotatable=0;points=[[0,0.5],[1,0.5]];portConstraint=eastwest;rounded=1;fontColor=#143642;" vertex="1" parent="icPJS7Rqo_sTtw6IjZ7I-25">
          <mxGeometry y="34" width="160" height="46" as="geometry" />
        </mxCell>
        <mxCell id="icPJS7Rqo_sTtw6IjZ7I-47" style="edgeStyle=orthogonalEdgeStyle;orthogonalLoop=1;jettySize=auto;html=1;exitX=0.25;exitY=1;exitDx=0;exitDy=0;entryX=0.995;entryY=0.856;entryDx=0;entryDy=0;curved=1;labelBackgroundColor=#DAD2D8;strokeColor=#A8201A;fontColor=#143642;entryPerimeter=0;" edge="1" parent="1" source="icPJS7Rqo_sTtw6IjZ7I-30" target="icPJS7Rqo_sTtw6IjZ7I-37">
          <mxGeometry relative="1" as="geometry">
            <mxPoint x="620" y="410" as="targetPoint" />
          </mxGeometry>
        </mxCell>
        <mxCell id="icPJS7Rqo_sTtw6IjZ7I-30" value="server.js" style="swimlane;fontStyle=1;align=center;verticalAlign=top;childLayout=stackLayout;horizontal=1;startSize=26;horizontalStack=0;resizeParent=1;resizeParentMax=0;resizeLast=0;collapsible=1;marginBottom=0;rounded=1;fillColor=#FAE5C7;strokeColor=#0F8B8D;fontColor=#143642;" vertex="1" parent="1">
          <mxGeometry x="730" y="404" width="160" height="60" as="geometry" />
        </mxCell>
        <mxCell id="icPJS7Rqo_sTtw6IjZ7I-31" value="+ field: model" style="text;strokeColor=none;fillColor=none;align=left;verticalAlign=top;spacingLeft=4;spacingRight=4;overflow=hidden;rotatable=0;points=[[0,0.5],[1,0.5]];portConstraint=eastwest;rounded=1;fontColor=#143642;" vertex="1" parent="icPJS7Rqo_sTtw6IjZ7I-30">
          <mxGeometry y="26" width="160" height="26" as="geometry" />
        </mxCell>
        <mxCell id="icPJS7Rqo_sTtw6IjZ7I-32" value="" style="line;strokeWidth=1;fillColor=none;align=left;verticalAlign=middle;spacingTop=-1;spacingLeft=3;spacingRight=3;rotatable=0;labelPosition=right;points=[];portConstraint=eastwest;rounded=1;labelBackgroundColor=#DAD2D8;strokeColor=#0F8B8D;fontColor=#143642;" vertex="1" parent="icPJS7Rqo_sTtw6IjZ7I-30">
          <mxGeometry y="52" width="160" height="8" as="geometry" />
        </mxCell>
        <mxCell id="icPJS7Rqo_sTtw6IjZ7I-35" style="edgeStyle=orthogonalEdgeStyle;orthogonalLoop=1;jettySize=auto;html=1;curved=1;labelBackgroundColor=#DAD2D8;strokeColor=#A8201A;fontColor=#143642;" edge="1" parent="1" source="icPJS7Rqo_sTtw6IjZ7I-31" target="icPJS7Rqo_sTtw6IjZ7I-17">
          <mxGeometry relative="1" as="geometry">
            <Array as="points">
              <mxPoint x="920" y="443" />
              <mxPoint x="920" y="370" />
            </Array>
          </mxGeometry>
        </mxCell>
        <mxCell id="icPJS7Rqo_sTtw6IjZ7I-48" style="edgeStyle=orthogonalEdgeStyle;orthogonalLoop=1;jettySize=auto;html=1;exitX=0.5;exitY=0;exitDx=0;exitDy=0;entryX=0.5;entryY=1;entryDx=0;entryDy=0;curved=1;labelBackgroundColor=#DAD2D8;strokeColor=#A8201A;fontColor=#143642;" edge="1" parent="1" source="icPJS7Rqo_sTtw6IjZ7I-36" target="icPJS7Rqo_sTtw6IjZ7I-40">
          <mxGeometry relative="1" as="geometry" />
        </mxCell>
        <mxCell id="icPJS7Rqo_sTtw6IjZ7I-36" value="inputForm.jsx" style="swimlane;fontStyle=1;align=center;verticalAlign=top;childLayout=stackLayout;horizontal=1;startSize=26;horizontalStack=0;resizeParent=1;resizeParentMax=0;resizeLast=0;collapsible=1;marginBottom=0;rounded=1;fillColor=#FAE5C7;strokeColor=#0F8B8D;fontColor=#143642;" vertex="1" parent="1">
          <mxGeometry x="450" y="430" width="160" height="114" as="geometry" />
        </mxCell>
        <mxCell id="icPJS7Rqo_sTtw6IjZ7I-37" value="+ CSV Learn&#xa;+ CSV Anomaly&#xa;+ Algorithm" style="text;strokeColor=none;fillColor=none;align=left;verticalAlign=top;spacingLeft=4;spacingRight=4;overflow=hidden;rotatable=0;points=[[0,0.5],[1,0.5]];portConstraint=eastwest;rounded=1;fontColor=#143642;" vertex="1" parent="icPJS7Rqo_sTtw6IjZ7I-36">
          <mxGeometry y="26" width="160" height="54" as="geometry" />
        </mxCell>
        <mxCell id="icPJS7Rqo_sTtw6IjZ7I-38" value="" style="line;strokeWidth=1;fillColor=none;align=left;verticalAlign=middle;spacingTop=-1;spacingLeft=3;spacingRight=3;rotatable=0;labelPosition=right;points=[];portConstraint=eastwest;rounded=1;labelBackgroundColor=#DAD2D8;strokeColor=#0F8B8D;fontColor=#143642;" vertex="1" parent="icPJS7Rqo_sTtw6IjZ7I-36">
          <mxGeometry y="80" width="160" height="8" as="geometry" />
        </mxCell>
        <mxCell id="icPJS7Rqo_sTtw6IjZ7I-39" value="+ Submit" style="text;strokeColor=none;fillColor=none;align=left;verticalAlign=top;spacingLeft=4;spacingRight=4;overflow=hidden;rotatable=0;points=[[0,0.5],[1,0.5]];portConstraint=eastwest;rounded=1;fontColor=#143642;" vertex="1" parent="icPJS7Rqo_sTtw6IjZ7I-36">
          <mxGeometry y="88" width="160" height="26" as="geometry" />
        </mxCell>
        <mxCell id="icPJS7Rqo_sTtw6IjZ7I-40" value="index.html" style="swimlane;fontStyle=1;align=center;verticalAlign=top;childLayout=stackLayout;horizontal=1;startSize=26;horizontalStack=0;resizeParent=1;resizeParentMax=0;resizeLast=0;collapsible=1;marginBottom=0;rounded=1;fillColor=#FAE5C7;strokeColor=#0F8B8D;fontColor=#143642;" vertex="1" parent="1">
          <mxGeometry x="450" y="274" width="160" height="34" as="geometry" />
        </mxCell>
        <mxCell id="icPJS7Rqo_sTtw6IjZ7I-42" value="" style="line;strokeWidth=1;fillColor=none;align=left;verticalAlign=middle;spacingTop=-1;spacingLeft=3;spacingRight=3;rotatable=0;labelPosition=right;points=[];portConstraint=eastwest;rounded=1;labelBackgroundColor=#DAD2D8;strokeColor=#0F8B8D;fontColor=#143642;" vertex="1" parent="icPJS7Rqo_sTtw6IjZ7I-40">
          <mxGeometry y="26" width="160" height="8" as="geometry" />
        </mxCell>
        <mxCell id="icPJS7Rqo_sTtw6IjZ7I-45" style="edgeStyle=orthogonalEdgeStyle;orthogonalLoop=1;jettySize=auto;html=1;exitX=0.5;exitY=1.231;exitDx=0;exitDy=0;exitPerimeter=0;entryX=0.5;entryY=0;entryDx=0;entryDy=0;curved=1;labelBackgroundColor=#DAD2D8;strokeColor=#A8201A;fontColor=#143642;" edge="1" parent="1" source="icPJS7Rqo_sTtw6IjZ7I-20" target="icPJS7Rqo_sTtw6IjZ7I-25">
          <mxGeometry relative="1" as="geometry">
            <mxPoint x="1170" y="474" as="sourcePoint" />
            <mxPoint x="1250" y="530" as="targetPoint" />
            <Array as="points">
              <mxPoint x="1160" y="500" />
              <mxPoint x="1070" y="500" />
            </Array>
          </mxGeometry>
        </mxCell>
        <mxCell id="icPJS7Rqo_sTtw6IjZ7I-46" style="edgeStyle=orthogonalEdgeStyle;orthogonalLoop=1;jettySize=auto;html=1;entryX=0.728;entryY=0.975;entryDx=0;entryDy=0;entryPerimeter=0;curved=1;labelBackgroundColor=#DAD2D8;strokeColor=#A8201A;fontColor=#143642;" edge="1" parent="1" source="icPJS7Rqo_sTtw6IjZ7I-18" target="icPJS7Rqo_sTtw6IjZ7I-32">
          <mxGeometry relative="1" as="geometry">
            <Array as="points">
              <mxPoint x="980" y="408" />
              <mxPoint x="980" y="560" />
              <mxPoint x="847" y="560" />
            </Array>
          </mxGeometry>
        </mxCell>
        <mxCell id="icPJS7Rqo_sTtw6IjZ7I-49" style="edgeStyle=orthogonalEdgeStyle;orthogonalLoop=1;jettySize=auto;html=1;entryX=0.5;entryY=0;entryDx=0;entryDy=0;curved=1;labelBackgroundColor=#DAD2D8;strokeColor=#A8201A;fontColor=#143642;exitX=1.005;exitY=0.07;exitDx=0;exitDy=0;exitPerimeter=0;" edge="1" parent="1" source="icPJS7Rqo_sTtw6IjZ7I-37" target="icPJS7Rqo_sTtw6IjZ7I-30">
          <mxGeometry relative="1" as="geometry" />
        </mxCell>
        <mxCell id="icPJS7Rqo_sTtw6IjZ7I-51" value="HTTP POST&lt;br&gt;&quot;/detect&quot;" style="html=1;rounded=1;fillColor=#f8cecc;strokeColor=#b85450;" vertex="1" parent="1">
          <mxGeometry x="700" y="330" width="110" height="50" as="geometry" />
        </mxCell>
        <mxCell id="icPJS7Rqo_sTtw6IjZ7I-52" value="anomalies,json" style="html=1;rounded=1;fillColor=#e1d5e7;strokeColor=#9673a6;" vertex="1" parent="1">
          <mxGeometry x="822" y="570" width="110" height="30" as="geometry" />
        </mxCell>
        <mxCell id="icPJS7Rqo_sTtw6IjZ7I-53" value="anomalies.json" style="html=1;rounded=1;fillColor=#e1d5e7;strokeColor=#9673a6;" vertex="1" parent="1">
          <mxGeometry x="670" y="510" width="110" height="30" as="geometry" />
        </mxCell>
        <mxCell id="icPJS7Rqo_sTtw6IjZ7I-54" value="model.learn" style="html=1;rounded=1;fillColor=#f8cecc;strokeColor=#b85450;" vertex="1" parent="1">
          <mxGeometry x="890" y="340" width="110" height="20" as="geometry" />
        </mxCell>
      </root>
    </mxGraphModel>
  </diagram>
</mxfile>
